<?xml version="1.0" standalone="no"?>
<!DOCTYPE svg PUBLIC "-//W3C//DTD SVG 20010904//EN"
 "http://www.w3.org/TR/2001/REC-SVG-20010904/DTD/svg10.dtd">
<svg version="1.0" xmlns="http://www.w3.org/2000/svg"
 width="300.000000pt" height="300.000000pt" viewBox="0 0 300.000000 300.000000"
 preserveAspectRatio="xMidYMid meet">
<metadata>
Created by potrace 1.11, written by Peter Selinger 2001-2013
</metadata>
<g transform="translate(0.000000,300.000000) scale(0.100000,-0.100000)"
fill="#000000" stroke="none">
<path d="M1295 2993 c-11 -3 -24 -8 -28 -13 -4 -4 -27 -4 -50 0 -44 9 -107 2
-107 -10 0 -4 -12 -11 -27 -14 -16 -4 -63 -27 -105 -52 -43 -24 -81 -44 -86
-44 -17 0 -285 -286 -307 -327 -13 -23 -33 -57 -46 -75 -13 -18 -34 -53 -47
-78 -12 -25 -38 -70 -57 -100 -46 -73 -58 -101 -60 -140 0 -14 -5 -36 -9 -50
-9 -25 -9 -25 12 -6 21 18 22 18 31 -5 5 -13 10 -19 10 -13 1 7 9 15 18 19 15
5 16 4 6 -6 -15 -15 -17 -33 -3 -24 14 9 12 -21 -4 -53 -11 -22 -12 -67 -4
-252 9 -212 11 -228 36 -277 26 -52 26 -52 6 -74 -16 -18 -19 -34 -17 -113 3
-99 12 -147 31 -154 8 -2 12 13 12 50 1 67 29 152 52 156 10 2 25 -4 34 -13
15 -15 15 -18 -11 -44 -37 -40 -51 -103 -29 -137 21 -30 36 -27 48 12 15 52
25 74 34 74 4 0 8 -8 9 -17 0 -10 4 -66 8 -125 7 -92 6 -109 -9 -123 -9 -9
-16 -26 -16 -38 0 -29 -15 -51 -29 -43 -18 11 -13 -2 11 -30 19 -21 29 -24 55
-19 31 5 33 4 43 -35 11 -42 73 -167 103 -210 9 -14 17 -30 17 -37 0 -6 5 -24
12 -40 13 -32 15 -39 17 -70 1 -14 7 -23 16 -23 30 0 63 -31 69 -65 4 -19 11
-35 17 -35 6 0 8 -4 5 -9 -3 -4 10 -21 29 -37 19 -16 35 -35 35 -41 0 -7 9
-18 20 -25 11 -7 20 -19 20 -26 0 -27 41 -82 64 -86 7 -1 21 -9 30 -19 10 -9
27 -17 38 -17 12 0 34 -13 50 -30 l28 -30 277 0 c185 0 274 3 267 10 -11 11
-6 82 5 75 4 -2 22 12 40 30 20 22 42 35 57 35 14 0 27 7 30 15 4 8 15 15 25
15 24 0 68 48 122 130 43 66 51 76 120 157 20 24 37 48 37 53 0 5 8 16 17 26
10 10 30 51 44 93 15 42 31 90 37 106 26 73 45 177 48 259 2 49 8 103 14 119
5 17 10 43 10 59 0 16 6 31 15 34 18 7 20 69 4 111 -19 49 -21 93 -4 93 17 0
48 -56 64 -118 13 -46 25 -53 41 -22 12 23 0 137 -21 188 -13 31 -12 35 6 48
19 14 20 25 17 241 -3 244 -14 324 -52 355 -25 21 -25 32 1 57 21 19 21 23 9
68 -8 26 -26 66 -42 87 -15 21 -28 45 -28 52 0 8 -13 20 -30 29 -20 11 -30 23
-30 39 0 13 -11 39 -24 58 -21 32 -25 56 -15 97 4 15 -56 63 -109 86 -19 8
-36 24 -39 34 -12 45 -117 105 -173 99 -37 -3 -50 4 -56 30 -9 34 -20 42 -63
42 -20 0 -47 10 -65 24 -17 12 -49 29 -71 36 -22 7 -49 17 -60 23 -11 6 -36
13 -55 15 -64 6 -325 11 -345 5z m535 -648 c0 -14 -4 -25 -10 -25 -11 0 -14
33 -3 43 11 11 13 8 13 -18z m10 -50 c0 -8 -7 -15 -15 -15 -16 0 -20 12 -8 23
11 12 23 8 23 -8z m214 -27 c-5 -7 1 -9 16 -5 40 10 80 -4 96 -34 8 -16 22
-29 30 -29 13 0 15 -6 9 -27 -3 -16 -10 -51 -14 -79 -4 -29 -13 -59 -20 -68
-11 -14 -11 -16 3 -16 10 0 14 -4 11 -10 -8 -12 27 -80 55 -105 36 -32 61
-102 72 -199 6 -50 24 -151 41 -225 29 -129 30 -140 23 -292 -3 -87 -13 -188
-21 -224 -9 -36 -13 -70 -10 -76 4 -5 -2 -25 -14 -44 -14 -23 -16 -35 -8 -38
20 -7 -37 -99 -83 -135 -24 -18 -45 -30 -48 -28 -8 8 19 36 29 30 5 -3 9 -1 9
5 0 5 -5 13 -11 16 -6 4 -8 14 -5 22 4 8 1 11 -5 8 -6 -4 -8 -13 -5 -20 5 -15
-26 -47 -42 -43 -6 2 -25 -13 -42 -32 l-30 -35 6 33 c4 21 3 32 -5 32 -6 0
-11 -4 -11 -10 0 -5 -6 -10 -13 -10 -27 0 -69 -58 -74 -102 -3 -24 -11 -48
-19 -54 -8 -6 -14 -14 -14 -18 0 -9 -62 -76 -70 -76 -4 0 -11 16 -14 36 -5 26
-10 33 -19 26 -7 -6 -15 -11 -20 -11 -4 0 -20 -7 -37 -16 -18 -10 -31 -11 -35
-5 -4 6 -11 7 -17 4 -8 -5 -9 -1 -5 10 8 21 -21 35 -34 15 -5 -8 -9 -10 -9 -5
0 5 -9 1 -19 -8 -16 -15 -22 -15 -40 -4 -15 9 -23 10 -32 1 -7 -7 -21 -8 -45
-1 -19 5 -39 6 -44 3 -5 -3 -29 -8 -52 -11 -24 -2 -48 -6 -54 -8 -6 -2 -26 3
-44 12 -24 12 -35 13 -37 5 -6 -17 -64 -5 -81 15 -10 14 -16 14 -32 4 -11 -7
-20 -9 -20 -4 0 15 -75 90 -97 96 -18 6 -20 3 -16 -13 3 -13 -2 -23 -16 -31
-31 -16 -43 -3 -37 40 3 25 1 40 -7 43 -8 2 -7 9 5 20 21 21 28 21 43 0 10
-14 45 -28 45 -18 0 15 -14 34 -21 29 -5 -3 -9 11 -9 30 0 20 -4 36 -10 36 -5
0 -10 9 -10 20 0 11 4 20 8 20 5 0 9 7 9 15 0 10 -10 14 -33 13 -18 -1 -31 -5
-28 -9 2 -4 -5 -13 -16 -19 -14 -8 -20 -8 -20 0 0 7 -6 10 -12 7 -7 -2 -12
-13 -10 -23 3 -18 3 -18 -13 1 -9 11 -14 14 -10 8 4 -9 1 -11 -9 -7 -9 3 -13
10 -10 15 10 17 -15 47 -36 42 -11 -3 -20 -9 -20 -14 0 -10 -32 1 -41 13 -3 5
-15 10 -26 11 -14 1 -19 6 -15 16 3 9 1 12 -6 7 -8 -4 -12 0 -12 11 0 11 -7
28 -15 39 -8 10 -17 40 -21 66 -4 27 -10 48 -14 48 -4 0 -7 12 -7 28 0 15 -6
54 -13 87 -9 45 -10 111 -5 265 5 113 9 248 9 300 1 87 4 99 31 142 24 36 37
48 65 53 19 4 54 17 78 30 23 13 42 21 42 18 0 -3 -22 -26 -48 -52 -50 -49
-59 -63 -73 -121 -6 -26 -3 -46 13 -85 28 -66 32 -69 76 -67 32 2 41 -2 52
-23 7 -14 22 -25 32 -25 10 0 18 -4 18 -10 0 -20 74 -22 156 -5 47 10 87 22
90 26 3 5 14 9 25 9 10 0 40 19 64 43 34 31 50 57 62 97 9 30 22 62 28 70 7 8
15 24 19 35 4 11 10 15 14 10 4 -6 18 -11 32 -11 54 -3 102 -37 129 -91 16
-32 33 -52 44 -52 11 -1 17 -9 17 -22 0 -19 2 -20 16 -8 15 12 16 11 10 -7 -9
-28 5 -38 90 -63 89 -26 195 -28 219 -4 16 15 15 17 -6 28 -12 7 -30 10 -41 7
-10 -2 -18 1 -18 7 0 6 10 11 23 11 18 0 23 5 23 21 -1 12 5 24 13 27 10 3 12
0 8 -11 -6 -17 -1 -18 78 -17 56 1 53 0 58 26 2 10 8 27 12 38 5 12 2 28 -8
46 -18 29 -14 40 15 40 10 0 18 7 18 15 0 9 -9 15 -24 15 -14 0 -28 5 -32 11
-5 8 1 10 20 7 24 -5 27 -3 24 21 -2 18 -21 39 -64 72 -61 46 -63 46 -125 43
-160 -9 -271 -20 -299 -31 -8 -4 -18 -7 -21 -7 -13 -2 -84 -42 -87 -48 -5 -10
-32 -10 -32 0 0 4 -13 13 -30 20 -16 8 -30 19 -30 26 0 7 -18 22 -39 34 -56
31 -71 84 -28 98 12 4 33 15 47 26 15 12 33 17 47 13 13 -3 23 -1 23 4 0 5 9
13 21 16 11 4 18 9 15 13 -10 9 45 41 60 35 9 -3 14 2 14 16 0 42 60 125 74
103 3 -5 -4 -37 -14 -72 -28 -91 -18 -85 15 9 21 59 32 78 42 74 14 -5 14 -17
2 -63 -3 -9 4 -16 19 -18 13 -2 22 2 22 10 1 20 50 52 62 40 6 -6 3 -14 -9
-23 -11 -8 -23 -20 -27 -27 -13 -21 22 0 65 40 32 29 69 48 69 34 0 -3 -14
-21 -32 -41 -24 -28 -33 -33 -40 -23 -8 10 -9 9 -5 -3 3 -9 0 -22 -6 -28 -6
-6 -9 -13 -6 -15 5 -5 107 82 148 126 23 25 49 30 35 6z m-314 8 c0 -3 -4 -8
-10 -11 -5 -3 -10 -1 -10 4 0 6 5 11 10 11 6 0 10 -2 10 -4z m157 -31 c0 -8
-6 -16 -14 -19 -7 -3 -13 1 -13 8 0 8 6 17 13 19 6 3 12 6 13 6 0 1 1 -6 1
-14z m-606 -202 c6 -21 29 -62 50 -92 22 -30 39 -58 39 -64 0 -5 10 -18 23
-28 l22 -20 -25 14 c-14 8 -36 14 -50 12 -16 -1 -35 7 -53 24 -21 19 -39 26
-70 26 -23 0 -41 5 -41 10 1 6 5 21 8 35 7 24 6 24 -9 -2 -23 -41 -34 -34 -24
13 12 54 25 76 49 89 17 9 20 7 20 -12 1 -23 1 -23 23 4 12 15 23 27 24 27 1
1 7 -16 14 -36z m-156 -95 c-7 -34 -21 -55 -30 -47 -7 8 17 79 27 79 5 0 7
-15 3 -32z m-65 -25 c0 -28 -17 -50 -29 -38 -8 8 -6 18 5 33 18 27 24 28 24 5z
m958 -223 c43 -31 56 -48 25 -31 -10 5 -44 14 -75 21 -32 7 -58 16 -58 20 0
31 60 25 108 -10z m-1362 -827 c-10 -11 -26 18 -26 48 0 43 14 43 24 0 5 -23
6 -45 2 -48z m206 -177 c7 4 8 2 4 -4 -11 -18 -26 -14 -25 6 0 10 3 12 6 4 2
-6 10 -9 15 -6z"/>
<path d="M1315 1265 c-33 -14 -61 -25 -63 -25 -2 0 5 -11 15 -25 10 -13 28
-25 40 -25 16 0 21 -4 17 -15 -4 -8 -15 -15 -25 -15 -10 0 -19 -5 -19 -12 0
-7 -12 -25 -27 -40 -24 -25 -25 -30 -12 -44 14 -13 19 -13 50 3 45 24 51 34
32 56 -16 17 -16 17 0 11 9 -3 17 -11 17 -16 0 -6 7 -8 15 -4 8 3 15 1 15 -4
0 -6 -5 -10 -11 -10 -5 0 -8 -4 -5 -8 8 -14 82 -6 107 12 30 21 58 21 74 -1 8
-10 29 -17 59 -19 26 -1 60 -6 77 -9 38 -9 59 8 59 47 0 24 -3 28 -13 19 -8
-6 -17 -7 -21 -3 -4 4 -13 7 -19 7 -7 0 -13 8 -15 18 -2 12 3 17 18 17 28 0
80 28 80 43 0 13 -86 55 -131 64 -16 3 -30 -1 -38 -11 -17 -20 -40 -21 -47 -1
-7 16 -74 22 -74 6 0 -17 -32 -21 -53 -6 -28 19 -31 19 -102 -10z"/>
<path d="M1161 1238 c-77 -62 -114 -88 -153 -105 -21 -9 -38 -22 -38 -29 0 -7
-6 -15 -12 -17 -8 -3 -7 -6 4 -6 9 -1 20 4 23 9 3 6 14 10 24 10 17 0 17 -5 5
-81 -13 -85 -11 -109 12 -109 8 0 11 -6 8 -15 -4 -8 1 -17 10 -21 9 -3 16 -13
16 -22 0 -13 4 -12 23 5 29 27 75 34 109 17 35 -18 81 -4 71 23 -6 15 -4 16 9
5 13 -11 16 -8 22 19 5 29 9 31 35 26 19 -4 33 -1 40 7 7 8 21 12 32 9 12 -3
24 -1 28 5 13 21 66 25 85 7 13 -13 20 -15 29 -6 16 16 62 14 77 -4 7 -8 25
-15 41 -15 15 0 32 -7 37 -16 7 -13 13 -14 29 -5 24 12 33 6 33 -26 0 -16 6
-23 20 -23 11 0 20 -7 20 -15 0 -14 3 -14 28 -1 31 16 66 7 76 -20 6 -15 9
-16 16 -4 7 11 10 8 15 -12 4 -16 12 -25 20 -22 14 6 38 55 33 70 -1 5 6 22
16 37 18 27 18 30 2 64 -13 27 -14 38 -5 44 17 10 3 99 -19 116 -26 20 -124
83 -128 83 -8 0 10 -67 27 -103 17 -37 16 -85 -1 -56 -6 9 -11 9 -23 -2 -11
-11 -12 -19 -4 -37 8 -16 7 -26 -1 -34 -9 -9 -35 -5 -112 21 -89 29 -115 33
-236 36 -128 3 -141 2 -223 -25 -82 -27 -131 -30 -131 -8 0 5 5 6 10 3 6 -3
10 2 10 12 0 11 5 24 12 31 19 19 -12 15 -34 -5 -30 -27 -22 1 27 99 63 126
60 145 -14 86z m-11 -252 c0 -3 -4 -8 -10 -11 -5 -3 -10 -1 -10 4 0 6 5 11 10
11 6 0 10 -2 10 -4z"/>
<path d="M1740 1101 c0 -5 5 -22 10 -37 10 -25 12 -26 26 -12 15 14 14 18 -5
37 -23 23 -31 26 -31 12z"/>
<path d="M900 1050 c0 -5 5 -10 10 -10 6 0 10 5 10 10 0 6 -4 10 -10 10 -5 0
-10 -4 -10 -10z"/>
<path d="M1332 885 c-8 -16 -8 -26 -1 -31 15 -9 258 -6 291 3 60 17 23 27
-108 29 -84 1 -140 6 -147 13 -16 16 -23 14 -35 -14z"/>
<path d="M2297 845 c-9 -14 -13 -26 -8 -30 6 -3 15 4 21 15 17 31 8 42 -13 15z"/>
<path d="M1300 810 c0 -5 5 -10 11 -10 5 0 7 5 4 10 -3 6 -8 10 -11 10 -2 0
-4 -4 -4 -10z"/>
<path d="M1338 793 c7 -3 16 -2 19 1 4 3 -2 6 -13 5 -11 0 -14 -3 -6 -6z"/>
<path d="M1618 784 c-4 -3 -60 -7 -125 -8 -115 -2 -149 -8 -138 -26 3 -4 -2
-10 -10 -14 -8 -3 -15 -16 -15 -28 0 -29 100 -128 128 -128 11 0 41 9 65 19
25 11 47 18 49 15 3 -2 26 3 51 12 33 11 47 21 47 34 0 11 5 22 10 25 6 4 8
11 4 16 -3 5 -9 7 -14 4 -4 -3 -10 2 -14 10 -3 8 0 17 6 21 7 4 6 9 -3 14 -10
7 -10 11 0 24 12 14 10 16 -11 16 -14 0 -27 -3 -30 -6z"/>
<path d="M2251 706 c-10 -11 -9 -14 1 -12 14 2 23 15 15 22 -2 2 -10 -2 -16
-10z"/>
<path d="M620 1080 c0 -5 5 -10 11 -10 5 0 7 5 4 10 -3 6 -8 10 -11 10 -2 0
-4 -4 -4 -10z"/>
<path d="M2430 1033 c0 -4 5 -15 10 -23 8 -13 10 -13 10 2 0 9 -4 20 -10 23
-5 3 -10 3 -10 -2z"/>
<path d="M2445 970 c-4 -14 -14 -32 -22 -42 -22 -25 5 -35 29 -10 17 16 19 25
11 48 l-10 29 -8 -25z"/>
<path d="M2393 442 c-29 -3 -33 -7 -33 -32 0 -41 16 -78 50 -117 17 -19 30
-40 30 -48 0 -14 -49 -125 -60 -135 -3 -3 -7 -21 -8 -40 -2 -19 -5 -43 -8 -52
-4 -14 1 -18 24 -18 28 0 31 5 75 118 45 116 87 252 87 282 0 18 -108 47 -157
42z"/>
<path d="M876 286 c5 -59 9 -66 18 -30 4 15 3 30 -2 33 -5 3 -12 15 -15 26 -3
11 -4 -2 -1 -29z"/>
<path d="M965 220 c3 -5 8 -10 11 -10 2 0 4 5 4 10 0 6 -5 10 -11 10 -5 0 -7
-4 -4 -10z"/>
<path d="M900 205 c0 -5 5 -17 10 -25 5 -8 10 -10 10 -5 0 6 -5 17 -10 25 -5
8 -10 11 -10 5z"/>
<path d="M910 124 c6 -15 13 -43 16 -63 3 -20 7 -42 9 -49 6 -17 25 -15 25 3
0 8 4 15 8 15 5 0 9 6 9 14 0 8 -6 12 -14 9 -8 -3 -13 2 -13 15 0 11 -7 25
-15 32 -8 7 -15 18 -15 26 0 7 -4 16 -10 19 -6 4 -6 -3 0 -21z"/>
<path d="M1838 3 c7 -3 16 -2 19 1 4 3 -2 6 -13 5 -11 0 -14 -3 -6 -6z"/>
</g>
</svg>
